<svg width="320" height="320" viewBox="0 0 32 32" xmlns="http://www.w3.org/2000/svg" shape-rendering="crispEdges">
<rect width="100%" height="100%" fill="rgb(0, 128, 0)"/>
<rect x="0" y="7" width="1" height="1" fill="rgb(128, 128, 128)"/>
<rect x="0" y="8" width="1" height="1" fill="rgb(128, 128, 128)"/>
<rect x="0" y="15" width="1" height="1" fill="rgb(128, 128, 128)"/>
<rect x="0" y="16" width="1" height="1" fill="rgb(128, 128, 128)"/>
<rect x="0" y="24" width="1" height="1" fill="rgb(128, 128, 128)"/>
<rect x="1" y="0" width="1" height="1" fill="rgb(128, 128, 128)"/>
<rect x="1" y="7" width="1" height="1" fill="rgb(128, 128, 128)"/>
<rect x="1" y="8" width="1" height="1" fill="rgb(128, 128, 128)"/>
<rect x="1" y="9" width="1" height="1" fill="rgb(128, 128, 128)"/>
<rect x="1" y="15" width="1" height="1" fill="rgb(128, 128, 128)"/>
<rect x="1" y="17" width="1" height="1" fill="rgb(128, 128, 128)"/>
<rect x="1" y="25" width="1" height="1" fill="rgb(128, 128, 128)"/>
<rect x="2" y="1" width="1" height="1" fill="rgb(128, 128, 128)"/>
<rect x="2" y="9" width="1" height="1" fill="rgb(128, 128, 128)"/>
<rect x="2" y="10" width="1" height="1" fill="rgb(128, 128, 128)"/>
<rect x="2" y="18" width="1" height="1" fill="rgb(128, 128, 128)"/>
<rect x="2" y="26" width="1" height="1" fill="rgb(128, 128, 128)"/>
<rect x="3" y="2" width="1" height="1" fill="rgb(128, 128, 128)"/>
<rect x="3" y="7" width="1" height="1" fill="rgb(128, 128, 128)"/>
<rect x="3" y="10" width="1" height="1" fill="rgb(128, 128, 128)"/>
<rect x="3" y="11" width="1" height="1" fill="rgb(128, 128, 128)"/>
<rect x="3" y="15" width="1" height="1" fill="rgb(128, 128, 128)"/>
<rect x="3" y="19" width="1" height="1" fill="rgb(128, 128, 128)"/>
<rect x="3" y="27" width="1" height="1" fill="rgb(128, 128, 128)"/>
<rect x="4" y="3" width="1" height="1" fill="rgb(128, 128, 128)"/>
<rect x="4" y="7" width="1" height="1" fill="rgb(128, 128, 128)"/>
<rect x="4" y="11" width="1" height="1" fill="rgb(128, 128, 128)"/>
<rect x="4" y="12" width="1" height="1" fill="rgb(128, 128, 128)"/>
<rect x="4" y="15" width="1" height="1" fill="rgb(128, 128, 128)"/>
<rect x="4" y="20" width="1" height="1" fill="rgb(128, 128, 128)"/>
<rect x="4" y="28" width="1" height="1" fill="rgb(128, 128, 128)"/>
<rect x="5" y="4" width="1" height="1" fill="rgb(128, 128, 128)"/>
<rect x="5" y="12" width="1" height="1" fill="rgb(128, 128, 128)"/>
<rect x="5" y="13" width="1" height="1" fill="rgb(128, 128, 128)"/>
<rect x="5" y="21" width="1" height="1" fill="rgb(128, 128, 128)"/>
<rect x="5" y="29" width="1" height="1" fill="rgb(128, 128, 128)"/>
<rect x="6" y="5" width="1" height="1" fill="rgb(128, 128, 128)"/>
<rect x="6" y="13" width="1" height="1" fill="rgb(128, 128, 128)"/>
<rect x="6" y="14" width="1" height="1" fill="rgb(128, 128, 128)"/>
<rect x="6" y="22" width="1" height="1" fill="rgb(128, 128, 128)"/>
<rect x="6" y="30" width="1" height="1" fill="rgb(128, 128, 128)"/>
<rect x="7" y="6" width="1" height="1" fill="rgb(128, 128, 128)"/>
<rect x="7" y="14" width="1" height="1" fill="rgb(128, 128, 128)"/>
<rect x="7" y="15" width="1" height="1" fill="rgb(128, 128, 128)"/>
<rect x="7" y="23" width="1" height="1" fill="rgb(128, 128, 128)"/>
<rect x="7" y="31" width="1" height="1" fill="rgb(128, 128, 128)"/>
<rect x="8" y="0" width="1" height="1" fill="rgb(128, 128, 128)"/>
<rect x="8" y="15" width="1" height="1" fill="rgb(128, 128, 128)"/>
<rect x="8" y="16" width="1" height="1" fill="rgb(128, 128, 128)"/>
<rect x="8" y="23" width="1" height="1" fill="rgb(128, 128, 128)"/>
<rect x="8" y="24" width="1" height="1" fill="rgb(128, 128, 128)"/>
<rect x="9" y="1" width="1" height="1" fill="rgb(128, 128, 128)"/>
<rect x="9" y="8" width="1" height="1" fill="rgb(128, 128, 128)"/>
<rect x="9" y="15" width="1" height="1" fill="rgb(128, 128, 128)"/>
<rect x="9" y="16" width="1" height="1" fill="rgb(128, 128, 128)"/>
<rect x="9" y="17" width="1" height="1" fill="rgb(128, 128, 128)"/>
<rect x="9" y="23" width="1" height="1" fill="rgb(128, 128, 128)"/>
<rect x="9" y="25" width="1" height="1" fill="rgb(128, 128, 128)"/>
<rect x="10" y="2" width="1" height="1" fill="rgb(128, 128, 128)"/>
<rect x="10" y="9" width="1" height="1" fill="rgb(128, 128, 128)"/>
<rect x="10" y="17" width="1" height="1" fill="rgb(128, 128, 128)"/>
<rect x="10" y="18" width="1" height="1" fill="rgb(128, 128, 128)"/>
<rect x="10" y="26" width="1" height="1" fill="rgb(128, 128, 128)"/>
<rect x="11" y="3" width="1" height="1" fill="rgb(128, 128, 128)"/>
<rect x="11" y="10" width="1" height="1" fill="rgb(128, 128, 128)"/>
<rect x="11" y="15" width="1" height="1" fill="rgb(128, 128, 128)"/>
<rect x="11" y="18" width="1" height="1" fill="rgb(128, 128, 128)"/>
<rect x="11" y="19" width="1" height="1" fill="rgb(128, 128, 128)"/>
<rect x="11" y="23" width="1" height="1" fill="rgb(128, 128, 128)"/>
<rect x="11" y="27" width="1" height="1" fill="rgb(128, 128, 128)"/>
<rect x="12" y="4" width="1" height="1" fill="rgb(128, 128, 128)"/>
<rect x="12" y="11" width="1" height="1" fill="rgb(128, 128, 128)"/>
<rect x="12" y="15" width="1" height="1" fill="rgb(128, 128, 128)"/>
<rect x="12" y="19" width="1" height="1" fill="rgb(128, 128, 128)"/>
<rect x="12" y="20" width="1" height="1" fill="rgb(128, 128, 128)"/>
<rect x="12" y="23" width="1" height="1" fill="rgb(128, 128, 128)"/>
<rect x="12" y="28" width="1" height="1" fill="rgb(128, 128, 128)"/>
<rect x="13" y="5" width="1" height="1" fill="rgb(128, 128, 128)"/>
<rect x="13" y="12" width="1" height="1" fill="rgb(128, 128, 128)"/>
<rect x="13" y="20" width="1" height="1" fill="rgb(128, 128, 128)"/>
<rect x="13" y="21" width="1" height="1" fill="rgb(128, 128, 128)"/>
<rect x="13" y="29" width="1" height="1" fill="rgb(128, 128, 128)"/>
<rect x="14" y="6" width="1" height="1" fill="rgb(128, 128, 128)"/>
<rect x="14" y="13" width="1" height="1" fill="rgb(128, 128, 128)"/>
<rect x="14" y="21" width="1" height="1" fill="rgb(128, 128, 128)"/>
<rect x="14" y="22" width="1" height="1" fill="rgb(128, 128, 128)"/>
<rect x="14" y="30" width="1" height="1" fill="rgb(128, 128, 128)"/>
<rect x="15" y="7" width="1" height="1" fill="rgb(128, 128, 128)"/>
<rect x="15" y="14" width="1" height="1" fill="rgb(128, 128, 128)"/>
<rect x="15" y="22" width="1" height="1" fill="rgb(128, 128, 128)"/>
<rect x="15" y="23" width="1" height="1" fill="rgb(128, 128, 128)"/>
<rect x="15" y="31" width="1" height="1" fill="rgb(128, 128, 128)"/>
<rect x="16" y="0" width="1" height="1" fill="rgb(128, 128, 128)"/>
<rect x="16" y="8" width="1" height="1" fill="rgb(128, 128, 128)"/>
<rect x="16" y="23" width="1" height="1" fill="rgb(128, 128, 128)"/>
<rect x="16" y="24" width="1" height="1" fill="rgb(128, 128, 128)"/>
<rect x="16" y="31" width="1" height="1" fill="rgb(128, 128, 128)"/>
<rect x="17" y="1" width="1" height="1" fill="rgb(128, 128, 128)"/>
<rect x="17" y="9" width="1" height="1" fill="rgb(128, 128, 128)"/>
<rect x="17" y="16" width="1" height="1" fill="rgb(128, 128, 128)"/>
<rect x="17" y="23" width="1" height="1" fill="rgb(128, 128, 128)"/>
<rect x="17" y="24" width="1" height="1" fill="rgb(128, 128, 128)"/>
<rect x="17" y="25" width="1" height="1" fill="rgb(128, 128, 128)"/>
<rect x="17" y="31" width="1" height="1" fill="rgb(128, 128, 128)"/>
<rect x="18" y="2" width="1" height="1" fill="rgb(128, 128, 128)"/>
<rect x="18" y="10" width="1" height="1" fill="rgb(128, 128, 128)"/>
<rect x="18" y="17" width="1" height="1" fill="rgb(128, 128, 128)"/>
<rect x="18" y="25" width="1" height="1" fill="rgb(128, 128, 128)"/>
<rect x="18" y="26" width="1" height="1" fill="rgb(128, 128, 128)"/>
<rect x="19" y="3" width="1" height="1" fill="rgb(128, 128, 128)"/>
<rect x="19" y="11" width="1" height="1" fill="rgb(128, 128, 128)"/>
<rect x="19" y="18" width="1" height="1" fill="rgb(128, 128, 128)"/>
<rect x="19" y="23" width="1" height="1" fill="rgb(128, 128, 128)"/>
<rect x="19" y="26" width="1" height="1" fill="rgb(128, 128, 128)"/>
<rect x="19" y="27" width="1" height="1" fill="rgb(128, 128, 128)"/>
<rect x="19" y="31" width="1" height="1" fill="rgb(128, 128, 128)"/>
<rect x="20" y="4" width="1" height="1" fill="rgb(128, 128, 128)"/>
<rect x="20" y="12" width="1" height="1" fill="rgb(128, 128, 128)"/>
<rect x="20" y="19" width="1" height="1" fill="rgb(128, 128, 128)"/>
<rect x="20" y="23" width="1" height="1" fill="rgb(128, 128, 128)"/>
<rect x="20" y="27" width="1" height="1" fill="rgb(128, 128, 128)"/>
<rect x="20" y="28" width="1" height="1" fill="rgb(128, 128, 128)"/>
<rect x="20" y="31" width="1" height="1" fill="rgb(128, 128, 128)"/>
<rect x="21" y="5" width="1" height="1" fill="rgb(128, 128, 128)"/>
<rect x="21" y="13" width="1" height="1" fill="rgb(128, 128, 128)"/>
<rect x="21" y="20" width="1" height="1" fill="rgb(128, 128, 128)"/>
<rect x="21" y="28" width="1" height="1" fill="rgb(128, 128, 128)"/>
<rect x="21" y="29" width="1" height="1" fill="rgb(128, 128, 128)"/>
<rect x="22" y="6" width="1" height="1" fill="rgb(128, 128, 128)"/>
<rect x="22" y="14" width="1" height="1" fill="rgb(128, 128, 128)"/>
<rect x="22" y="21" width="1" height="1" fill="rgb(128, 128, 128)"/>
<rect x="22" y="29" width="1" height="1" fill="rgb(128, 128, 128)"/>
<rect x="22" y="30" width="1" height="1" fill="rgb(128, 128, 128)"/>
<rect x="23" y="7" width="1" height="1" fill="rgb(128, 128, 128)"/>
<rect x="23" y="15" width="1" height="1" fill="rgb(128, 128, 128)"/>
<rect x="23" y="22" width="1" height="1" fill="rgb(128, 128, 128)"/>
<rect x="23" y="30" width="1" height="1" fill="rgb(128, 128, 128)"/>
<rect x="23" y="31" width="1" height="1" fill="rgb(128, 128, 128)"/>
<rect x="24" y="0" width="1" height="1" fill="rgb(128, 128, 128)"/>
<rect x="24" y="7" width="1" height="1" fill="rgb(128, 128, 128)"/>
<rect x="24" y="8" width="1" height="1" fill="rgb(128, 128, 128)"/>
<rect x="24" y="16" width="1" height="1" fill="rgb(128, 128, 128)"/>
<rect x="24" y="31" width="1" height="1" fill="rgb(128, 128, 128)"/>
<rect x="25" y="0" width="1" height="1" fill="rgb(128, 128, 128)"/>
<rect x="25" y="1" width="1" height="1" fill="rgb(128, 128, 128)"/>
<rect x="25" y="7" width="1" height="1" fill="rgb(128, 128, 128)"/>
<rect x="25" y="9" width="1" height="1" fill="rgb(128, 128, 128)"/>
<rect x="25" y="17" width="1" height="1" fill="rgb(128, 128, 128)"/>
<rect x="25" y="24" width="1" height="1" fill="rgb(128, 128, 128)"/>
<rect x="25" y="31" width="1" height="1" fill="rgb(128, 128, 128)"/>
<rect x="26" y="1" width="1" height="1" fill="rgb(128, 128, 128)"/>
<rect x="26" y="2" width="1" height="1" fill="rgb(128, 128, 128)"/>
<rect x="26" y="10" width="1" height="1" fill="rgb(128, 128, 128)"/>
<rect x="26" y="18" width="1" height="1" fill="rgb(128, 128, 128)"/>
<rect x="26" y="25" width="1" height="1" fill="rgb(128, 128, 128)"/>
<rect x="27" y="2" width="1" height="1" fill="rgb(128, 128, 128)"/>
<rect x="27" y="3" width="1" height="1" fill="rgb(128, 128, 128)"/>
<rect x="27" y="7" width="1" height="1" fill="rgb(128, 128, 128)"/>
<rect x="27" y="11" width="1" height="1" fill="rgb(128, 128, 128)"/>
<rect x="27" y="19" width="1" height="1" fill="rgb(128, 128, 128)"/>
<rect x="27" y="26" width="1" height="1" fill="rgb(128, 128, 128)"/>
<rect x="27" y="31" width="1" height="1" fill="rgb(128, 128, 128)"/>
<rect x="28" y="3" width="1" height="1" fill="rgb(128, 128, 128)"/>
<rect x="28" y="4" width="1" height="1" fill="rgb(128, 128, 128)"/>
<rect x="28" y="7" width="1" height="1" fill="rgb(128, 128, 128)"/>
<rect x="28" y="12" width="1" height="1" fill="rgb(128, 128, 128)"/>
<rect x="28" y="20" width="1" height="1" fill="rgb(128, 128, 128)"/>
<rect x="28" y="27" width="1" height="1" fill="rgb(128, 128, 128)"/>
<rect x="28" y="31" width="1" height="1" fill="rgb(128, 128, 128)"/>
<rect x="29" y="4" width="1" height="1" fill="rgb(128, 128, 128)"/>
<rect x="29" y="5" width="1" height="1" fill="rgb(128, 128, 128)"/>
<rect x="29" y="13" width="1" height="1" fill="rgb(128, 128, 128)"/>
<rect x="29" y="21" width="1" height="1" fill="rgb(128, 128, 128)"/>
<rect x="29" y="28" width="1" height="1" fill="rgb(128, 128, 128)"/>
<rect x="30" y="5" width="1" height="1" fill="rgb(128, 128, 128)"/>
<rect x="30" y="6" width="1" height="1" fill="rgb(128, 128, 128)"/>
<rect x="30" y="14" width="1" height="1" fill="rgb(128, 128, 128)"/>
<rect x="30" y="22" width="1" height="1" fill="rgb(128, 128, 128)"/>
<rect x="30" y="29" width="1" height="1" fill="rgb(128, 128, 128)"/>
<rect x="31" y="6" width="1" height="1" fill="rgb(128, 128, 128)"/>
<rect x="31" y="7" width="1" height="1" fill="rgb(128, 128, 128)"/>
<rect x="31" y="15" width="1" height="1" fill="rgb(128, 128, 128)"/>
<rect x="31" y="23" width="1" height="1" fill="rgb(128, 128, 128)"/>
<rect x="31" y="30" width="1" height="1" fill="rgb(128, 128, 128)"/>
</svg>